:SAMPLES-PER-SECOND 30
:FULLY-SPECIFIED
:DEGREES
363
root  -26.7977 32.5315 -1.04305 -1.51035 84.2772 -3.11116
RightUpLeg  -52.0214 -7.08082 -7.43924
RightLeg  50.4205 0.276279 0.017363
RightFoot  -3.31137 -0.549496 7.55193
RightToes  7.56698e-010 0 -3.6325e-017
Spine  40.9755 2.48951 -33.4322
Spine1  0.0546319 -19.987 51.2403
HEad  -64.4692 33.3384 -58.4436
LeftShoulder1  -5.84417 14.592 -45.457
LeftArm  -96.5295 -74.8487 50.6574
LeftForeArm  -24.9897 -64.5746 -27.2308
LeftHand  -1.23357 12.5576 -17.9234
RightShoulder  8.50101 7.74 64.5837
RightArm  -85.8205 54.4589 -65.7864
RightForeArm  0.221131 77.0248 73.8984
RightHand  -1.57395 11.5214 -11.1607
LeftUpLeg  -31.3607 13.9328 6.88604
LeftLeg  70.8038 0.411286 2.23325
LeftFoot  -35.5973 -0.738925 -4.44659
LeftToes  -2.88401e-009 5.30678e-011 -1.08654e-010
364
root  -25.967 31.8904 -0.585268 -6.00456 84.7658 -7.38348
RightUpLeg  -53.7752 -8.06738 -6.34645
RightLeg  56.1149 0.922647 1.04043
RightFoot  -3.37932 -0.336563 4.44204
RightToes  7.56698e-010 0 -3.6325e-017
Spine  40.3861 2.31234 -32.4183
Spine1  2.30812 -20.785 51.7215
HEad  -65.6731 31.4329 -59.5986
LeftShoulder1  -5.63167 13.1919 -50.3088
LeftArm  -103.706 -73.3675 61.148
LeftForeArm  -25.4599 -64.9343 -27.7612
LeftHand  -1.13411 12.2072 -17.2782
RightShoulder  14.7094 14.4202 69.5595
RightArm  -83.5539 45.3259 -71.1945
RightForeArm  -0.33962 77.1069 75.6097
RightHand  -1.57294 12.1077 -10.7878
LeftUpLeg  -30.8084 13.2532 8.66412
LeftLeg  73.999 0.22537 2.03083
LeftFoot  -37.7482 -1.07926 -5.56923
LeftToes  -2.88401e-009 5.30678e-011 -1.08654e-010
365
root  -25.0854 31.3807 -0.0768401 -3.8047 85.1176 -5.11418
RightUpLeg  -55.1313 -9.32091 -5.66805
RightLeg  61.4213 1.13193 1.72883
RightFoot  -6.19652 -0.159072 2.57141
RightToes  7.56698e-010 0 -3.6325e-017
Spine  39.3743 2.12712 -31.8892
Spine1  4.32481 -21.5146 51.9797
HEad  -66.673 30.7039 -59.9735
LeftShoulder1  -5.2088 11.4725 -56.2753
LeftArm  -110.827 -71.7561 72.9878
LeftForeArm  -25.2878 -65.2643 -28.2243
LeftHand  -1.23101 12.4713 -18.1248
RightShoulder  20.7384 19.7484 74.2496
RightArm  -80.5537 37.4175 -74.9492
RightForeArm  1.18557 77.2293 78.1689
RightHand  -1.40081 11.3758 -10.0651
LeftUpLeg  -29.8968 12.4584 9.90553
LeftLeg  76.3863 0.063713 1.63563
LeftFoot  -39.1855 -1.60092 -7.40846
LeftToes  -2.88401e-009 5.30678e-011 -1.08654e-010
366
root  -24.1633 31.027 0.440959 0.718475 84.6631 -0.432297
RightUpLeg  -55.7462 -9.98455 -5.05487
RightLeg  65.6265 1.26323 2.41188
RightFoot  -8.95194 -0.0732443 0.656545
RightToes  7.56698e-010 0 -3.6325e-017
Spine  38.1222 2.09745 -31.8054
Spine1  6.21558 -22.0278 52.1871
HEad  -68.1965 29.5021 -60.9122
LeftShoulder1  -4.88004 10.2447 -61.8605
LeftArm  -115.519 -70.0512 81.9795
LeftForeArm  -24.8506 -65.8109 -29.0102
LeftHand  -1.24927 12.4041 -18.5891
RightShoulder  28.2657 25.0458 80.6838
RightArm  -76.5125 29.7526 -79.1786
RightForeArm  1.92919 77.3401 81.3758
RightHand  -1.40126 11.5314 -9.98827
LeftUpLeg  -28.3527 12.2094 11.2591
LeftLeg  78.2931 -0.223034 0.305047
LeftFoot  -39.6191 -2.18494 -9.61525
LeftToes  -2.88401e-009 5.30678e-011 -1.08654e-010
367
root  -23.214 30.8982 0.889559 -0.670242 84.4017 -1.57831
RightUpLeg  -55.0389 -10.2359 -4.39516
RightLeg  68.3976 1.27021 2.8054
RightFoot  -11.9897 -0.0808811 -0.181917
RightToes  7.56698e-010 0 -3.6325e-017
Spine  36.8572 1.71927 -30.9086
Spine1  8.22963 -22.8175 52.9426
HEad  -69.1761 28.0092 -62.7155
LeftShoulder1  -4.83386 9.2929 -69.7347
LeftArm  -122.548 -68.5074 93.813
LeftForeArm  -23.968 -66.5006 -30.0478
LeftHand  -1.35524 13.2346 -18.0473
RightShoulder  36.9901 29.5515 88.1252
RightArm  -72.2453 23.0948 -84.5736
RightForeArm  3.15396 77.4192 84.6169
RightHand  -1.39187 12.3601 -9.47537
LeftUpLeg  -26.8999 11.1841 12.9752
LeftLeg  80.0157 -0.446792 -1.27809
LeftFoot  -38.063 -2.76966 -12.6016
LeftToes  -2.88401e-009 5.30678e-011 -1.08654e-010
368
root  -22.2379 30.9482 1.33256 2.03923 83.9229 1.5399
RightUpLeg  -53.47 -10.0292 -4.33571
RightLeg  70.2066 1.22137 2.95479
RightFoot  -14.8829 -0.111795 -0.382954
RightToes  7.56698e-010 0 -3.6325e-017
Spine  35.227 1.64326 -30.717
Spine1  9.87134 -23.5399 54.8405
HEad  -69.6044 27.3476 -64.9854
LeftShoulder1  -5.60207 9.25085 -78.4296
LeftArm  -132.476 -68.7461 107.623
LeftForeArm  -21.6128 -67.3856 -31.3838
LeftHand  -1.20248 12.5013 -17.6037
RightShoulder  53.4643 32.8659 104.5
RightArm  -63.6222 14.2871 -96.2795
RightForeArm  5.24256 77.4521 90.8338
RightHand  -1.58537 12.465 -10.6737
LeftUpLeg  -25.6671 10.1332 14.2727
LeftLeg  81.7263 -0.641939 -3.35611
LeftFoot  -33.8039 -2.93549 -15.832
LeftToes  -2.88401e-009 5.30678e-011 -1.08654e-010
369
root  -21.274 31.2058 1.72173 6.02319 83.3762 5.96568
RightUpLeg  -51.1524 -9.43243 -4.68592
RightLeg  70.8004 1.14538 2.81485
RightFoot  -17.2148 -0.134723 -0.351402
RightToes  7.56698e-010 0 -3.6325e-017
Spine  33.352 1.11406 -30.7715
Spine1  12.2545 -24.6736 54.9708
HEad  -69.2101 25.9325 -65.3337
LeftShoulder1  -6.40696 9.75272 -81.2878
LeftArm  -139.705 -68.9556 114.885
LeftForeArm  -20.4286 -67.5025 -31.5137
LeftHand  -1.15636 12.3362 -17.3091
RightShoulder  65.665 32.9609 116.506
RightArm  -57.332 10.0976 -103.779
RightForeArm  8.17661 77.382 95.2493
RightHand  -1.67907 13.0575 -10.9314
LeftUpLeg  -25.4539 8.69553 14.8552
LeftLeg  83.4789 -0.576126 -3.86784
LeftFoot  -25.5069 -2.10429 -17.8847
LeftToes  -2.88401e-009 5.30678e-011 -1.08654e-010
370
root  -20.3226 31.6649 2.06559 8.28697 83.4216 8.73453
RightUpLeg  -47.9228 -8.95561 -5.0175
RightLeg  70.1923 1.01991 2.32977
RightFoot  -19.1274 -0.14366 -0.217032
RightToes  7.56698e-010 0 -3.6325e-017
Spine  34.7775 0.812559 -30.4286
Spine1  8.92838 -23.3552 54.2398
HEad  -67.0523 27.5257 -63.0127
LeftShoulder1  -4.91335 9.34052 -70.3611
LeftArm  -124.771 -70.2747 94.4589
LeftForeArm  -23.2318 -66.014 -29.2185
LeftHand  -1.24122 12.8679 -17.2917
RightShoulder  37.4857 30.4239 87.5466
RightArm  -71.5925 24.8492 -85.2369
RightForeArm  -6.82625 77.1282 76.5479
RightHand  -1.69586 12.7206 -11.217
LeftUpLeg  -26.5885 6.85625 14.9985
LeftLeg  85.1602 -0.417017 -2.91426
LeftFoot  -12.7598 -0.187011 -14.4484
LeftToes  -2.88401e-009 5.30678e-011 -1.08654e-010
371
root  -19.3879 32.2705 2.34248 11.2013 83.5035 12.0105
RightUpLeg  -44.3755 -7.94021 -5.52269
RightLeg  68.5331 0.735743 1.30278
RightFoot  -20.447 -0.1124 0.326795
RightToes  7.56698e-010 0 -3.6325e-017
Spine  35.5266 0.690235 -30.3384
Spine1  6.7349 -22.5404 54.1031
HEad  -66.0184 28.4878 -61.4287
LeftShoulder1  -4.70433 10.2808 -59.6629
LeftArm  -115.646 -72.3083 78.1453
LeftForeArm  -24.6251 -64.4112 -26.9792
LeftHand  -1.10779 12.1449 -17.0204
RightShoulder  19.6423 19.5761 72.0393
RightArm  -83.0189 41.9774 -77.1364
RightForeArm  -13.1373 76.2463 65.0345
RightHand  -1.49197 11.6653 -10.5298
LeftUpLeg  -28.0917 5.85416 14.2727
LeftLeg  85.8974 -0.293937 -0.889387
LeftFoot  -2.09012 0.732763 -8.17661
LeftToes  -2.88401e-009 5.30678e-011 -1.08654e-010
372
root  -18.4546 32.9535 2.62923 13.6537 83.3921 14.3486
RightUpLeg  -41.0788 -7.02896 -5.72666
RightLeg  66.1443 0.501153 0.577395
RightFoot  -21.429 -0.067838 0.875965
RightToes  7.56698e-010 0 -3.6325e-017
Spine  35.5701 0.600747 -30.4378
Spine1  5.24549 -21.7367 53.2216
HEad  -65.6611 29.9537 -60.0715
LeftShoulder1  -4.83635 12.0169 -49.2139
LeftArm  -108.14 -74.4449 62.7648
LeftForeArm  -24.9235 -63.2232 -25.484
LeftHand  -1.084 11.9375 -17.1714
RightShoulder  8.75452 8.37931 63.5739
RightArm  -93.3314 56.3147 -73.5593
RightForeArm  -14.3993 75.6636 60.1351
RightHand  -1.62582 11.2907 -11.659
LeftUpLeg  -29.5158 6.26646 13.5465
LeftLeg  85.3405 -0.36936 -2.04643
LeftFoot  -2.39552 0.494381 -6.12183
LeftToes  -2.88401e-009 5.30678e-011 -1.08654e-010
